Coordinates
version=1
nRows=16
nColumns=22
inDegrees=yes

Units are S.I. units (second, meters, Newtons, ...)
If the header above contains a line with 'inDegrees', this indicates whether rotational values are in degrees (yes) or radians (no).

endheader
time	pelvis_tilt	pelvis_list	pelvis_rotation	pelvis_tx	pelvis_ty	pelvis_tz	hip_flexion_r	hip_adduction_r	hip_rotation_r	knee_angle_r	ankle_angle_r	subtalar_angle_r	hip_flexion_l	hip_adduction_l	hip_rotation_l	knee_angle_l	ankle_angle_l	subtalar_angle_l	lumbar_extension	lumbar_bending	lumbar_rotation
      1.49000000	     -1.09333462	     -0.51734617	     -8.09134024	     -1.17600182	      0.92948279	      0.80151628	     -3.09588663	     -4.75869529	      5.13795608	     -3.28998626	      9.01398059	      6.67387232	     -1.27484248	     -5.02028068	    -10.71090732	    -10.28354441	      9.72749239	      1.46275242	     -4.92366263	     -4.03620065	      1.37494290
      1.50000000	     -1.18966191	     -0.43096856	     -7.87342405	     -1.17560941	      0.92935980	      0.80088653	     -3.06629283	     -4.85505436	      5.01777263	     -3.24944181	      9.02397391	      6.65475645	     -0.92273870	     -4.93883299	    -10.54319929	    -10.69066347	      9.77709220	      1.28672279	     -4.88547326	     -4.14945699	      1.21254162
      1.51000000	     -1.27837752	     -0.33364191	     -7.63586471	     -1.17519105	      0.92925353	      0.80017767	     -3.05419102	     -4.96661182	      4.86775598	     -3.19701606	      9.03734973	      6.64448491	     -0.56763166	     -4.83916298	    -10.37738465	    -11.10956394	      9.81651624	      1.11406878	     -4.86061074	     -4.27565780	      1.04496072
      1.52000000	     -1.37133885	     -0.22920128	     -7.37853717	     -1.17479833	      0.92915363	      0.79937858	     -3.03465456	     -5.08783871	      4.68638404	     -3.15219720	      9.05894832	      6.64764227	     -0.19062549	     -4.72617020	    -10.21564120	    -11.54517891	      9.84557970	      0.92957290	     -4.84630852	     -4.40633196	      0.86598603
      1.53000000	     -1.46552777	     -0.12044184	     -7.11021190	     -1.17439890	      0.92906768	      0.79852979	     -3.01448429	     -5.21454710	      4.46267141	     -3.10958197	      9.08316662	      6.66458648	      0.19550284	     -4.60391575	    -10.08153482	    -11.99042009	      9.86580521	      0.74804543	     -4.83454087	     -4.54566256	      0.69188485
      1.54000000	     -1.56450709	     -0.01074673	     -6.83906038	     -1.17403892	      0.92898839	      0.79763774	     -2.97937861	     -5.34317533	      4.21899085	     -3.08324794	      9.10720397	      6.69446157	      0.59885382	     -4.47628612	     -9.99318345	    -12.45104639	      9.87846767	      0.56269073	     -4.83127667	     -4.68777332	      0.52331265
      1.55000000	     -1.66517599	      0.09697513	     -6.56955827	     -1.17368708	      0.92891701	      0.79671133	     -2.93811858	     -5.47208633	      3.95094098	     -3.06579357	      9.12335301	      6.73209102	      1.00949532	     -4.34603320	     -9.97349672	    -12.92241591	      9.88854113	      0.38419925	     -4.83109821	     -4.83137766	      0.37062651
      1.56000000	     -1.76308341	      0.19836494	     -6.31234212	     -1.17336867	      0.92885831	      0.79576203	     -2.89452557	     -5.59743781	      3.67577343	     -3.04984060	      9.12629449	      6.77215059	      1.41806563	     -4.21710027	    -10.04329374	    -13.39683343	      9.90081590	      0.22080385	     -4.84672765	     -4.97153022	      0.23976606
      1.57000000	     -1.86326507	      0.29080184	     -6.05891882	     -1.17305188	      0.92879224	      0.79477146	     -2.84504056	     -5.71761008	      3.39320263	     -3.04326569	      9.11988172	      6.81585423	      1.83347742	     -4.09346947	    -10.19623801	    -13.88353306	      9.92365419	      0.05585190	     -4.86258123	     -5.10172354	      0.12886101
      1.58000000	     -1.96193180	      0.37149569	     -5.81975848	     -1.17274580	      0.92872043	      0.79375270	     -2.79327115	     -5.82995724	      3.12402570	     -3.03966844	      9.10675434	      6.86145966	      2.24183628	     -3.97727842	    -10.43589090	    -14.36711149	      9.96086597	     -0.11557311	     -4.88686755	     -5.21988107	      0.04189049
      1.59000000	     -1.98757829	      0.45603418	     -5.61540366	     -1.17235679	      0.92873622	      0.79272843	     -2.84051343	     -5.96196339	      2.92625434	     -2.99421695	      9.06182207	      6.87615762	      2.52429865	     -3.84043663	    -10.77675469	    -14.77787485	      9.98318614	     -0.18005491	     -4.98459924	     -5.35016487	     -0.01619167
      1.60000000	     -2.14285666	      0.48730773	     -5.37546489	     -1.17207861	      0.92853435	      0.79158415	     -2.69704045	     -6.02201521	      2.62453001	     -3.05864337	      9.10218645	      6.95149213	      2.99136873	     -3.77315286	    -11.07878507	    -15.27142310	     10.08002539	     -0.51248459	     -4.95151982	     -5.39799313	     -0.05415236
      1.61000000	     -2.23690464	      0.53310326	     -5.17653120	     -1.17170842	      0.92839597	      0.79041833	     -2.63607407	     -6.11477282	      2.42677469	     -3.08441284	      9.10378063	      6.99718897	      3.32991591	     -3.67267314	    -11.42303628	    -15.66710209	     10.15494410	     -0.78735530	     -4.97152803	     -5.46436951	     -0.06281737
      1.62000000	     -2.31887079	      0.55631712	     -4.97982887	     -1.17131230	      0.92824017	      0.78918926	     -2.58378587	     -6.18823065	      2.24188579	     -3.12586344	      9.13214858	      7.03198562	      3.61512904	     -3.58631108	    -11.71162241	    -15.99760099	     10.25283700	     -1.04188275	     -5.00446504	     -5.50072773	     -0.06246515
      1.63000000	     -2.40891905	      0.55737057	     -4.79367976	     -1.17087300	      0.92803154	      0.78788892	     -2.50788560	     -6.24318597	      2.08233104	     -3.20152728	      9.18503616	      7.05592341	      3.86720412	     -3.51578356	    -11.91822753	    -16.26997272	     10.37032621	     -1.28846932	     -5.01598518	     -5.49973886	     -0.04809679
      1.64000000	     -2.50447802	      0.53247730	     -4.62369462	     -1.17043213	      0.92777308	      0.78655871	     -2.40321301	     -6.27169205	      1.95272370	     -3.31899191	      9.27091160	      7.05874423	      4.07887610	     -3.46858005	    -12.02428717	    -16.46862027	     10.50322548	     -1.46912832	     -5.02265178	     -5.46619167	     -0.01823124
